<svg xmlns="http://www.w3.org/2000/svg" viewBox="0 0 1376.4 769.93"><defs><style>.cls-1,.cls-9{fill:#fff;isolation:isolate;}.cls-1{opacity:0.76;}.cls-2{fill:#999;}.cls-3{fill:#4d4d4d;}.cls-4{fill:#a7a9ac;}.cls-5{fill:#ccc;}.cls-6{opacity:0.84;}.cls-7{fill:#b3b3b3;}.cls-8{opacity:0.81;}.cls-9{opacity:0.63;}</style></defs><title>Website BG Style 3</title><g id="Layer_2" data-name="Layer 2"><g id="Layer_1-2" data-name="Layer 1"><rect class="cls-1" x="8.4" y="1.93" width="1365" height="768"/><path class="cls-2" d="M1376.4,660.93s-416.7,50-702.7-119.5-269-349.1-664-463.2c438.4,73.1,514.5,319.6,697.4,433.7C997.3,692.73,1339.5,657.93,1376.4,660.93Z"/><path class="cls-3" d="M0,533.33s304.9-145.2,614.6-149.2,384.8,85.1,753.4,23.2c-382.7,93.8-564.4.4-765.2.4C284.1,407.63,30.6,524,0,533.33Z"/><g id="Black_Hair_4" data-name="Black Hair 4"><path class="cls-4" d="M3.9,416.23s257.5,149,576.3,63.7,432.3-254.4,788.9-261.6c-358.5-41.2-583.8,166.6-791.7,226.3C247.7,539.23,31.8,422.63,3.9,416.23Z"/></g><g id="Black_Hair_4-2" data-name="Black Hair 4"><path class="cls-5" d="M1369.5,735.83s-339.4,89.6-641.3-67C426.3,512.43,379.9,318.93,3.6,231.23c399.7,40.2,548.1,297.2,743.2,403.3C1056.1,802.73,1337,735.83,1369.5,735.83Z"/></g><g id="Black_Hair_4-3" data-name="Black Hair 4"><g class="cls-6"><path class="cls-7" d="M3.7,130.13S210.7,429,541.1,485s486.2-85.8,831.6,79.4c-333.9-222.6-608-90.2-824.6-122C204.6,392,28.9,151.13,3.7,130.13Z"/></g></g><g id="Black_Hair_4-4" data-name="Black Hair 4"><g class="cls-8"><path class="cls-4" d="M1369.1,170.93s-339.4-98-641.3,73-348,382.2-724.3,478c399.6-43.7,547.9-324.6,742.9-440.5C1055.7,97.73,1336.6,170.93,1369.1,170.93Z"/></g></g><rect class="cls-9" x="8.4" width="1365" height="768"/></g></g></svg>