<?xml version="1.0" encoding="utf-8"?>
<!-- Generator: Adobe Illustrator 21.1.0, SVG Export Plug-In . SVG Version: 6.00 Build 0)  -->
<svg version="1.1" id="Layer_1" xmlns="http://www.w3.org/2000/svg" xmlns:xlink="http://www.w3.org/1999/xlink" x="0px" y="0px"
	 viewBox="0 0 1920 1080" style="enable-background:new 0 0 1920 1080;" xml:space="preserve">
<style type="text/css">
	.st0{stroke:#000000;stroke-miterlimit:10;}
	.st1{fill:#666666;stroke:#000000;stroke-miterlimit:10;}
	.st2{fill:#4D4D4D;stroke:#000000;stroke-miterlimit:10;}
	.st3{fill:#333333;stroke:#000000;stroke-miterlimit:10;}
	.st4{fill:#B3B3B3;stroke:#000000;stroke-miterlimit:10;}
	.st5{fill:#CCCCCC;stroke:#000000;stroke-miterlimit:10;}
	.st6{fill:#1A1A1A;stroke:#000000;stroke-miterlimit:10;}
	.st7{fill:#999999;stroke:#000000;stroke-miterlimit:10;}
	.st8{fill:#808080;stroke:#000000;stroke-miterlimit:10;}
	.st9{fill:#E6E6E6;stroke:#000000;stroke-miterlimit:10;}
	.st10{opacity:0.81;fill:#F2F2F2;stroke:#000000;stroke-miterlimit:10;}
</style>
<g>
	<polygon class="st0" points="-0.5,702.5 199.5,1079.5 -0.5,1079.5 	"/>
	<polygon class="st1" points="199.5,1080.5 452.5,799.5 -0.5,713.5 	"/>
	<polygon class="st2" points="452.5,797.5 733.5,1079.5 199.5,1079.5 	"/>
	<polygon class="st3" points="733.5,1079.5 1136.5,993.5 1336.5,1080.5 	"/>
	<polygon class="st2" points="-0.5,713.5 484.5,525.5 452.5,797.5 	"/>
	<polygon class="st3" points="-0.5,413.5 222.2,627.2 -0.5,713.5 	"/>
	<polygon class="st4" points="452.5,797.5 1136.5,993.5 733.5,1079.5 	"/>
	<polygon class="st3" points="452.5,802 485.1,522.1 921,446 453.4,794.1 959.5,739.5 1136.5,993.5 	"/>
	<polygon class="st1" points="222.5,624.5 285.5,216.5 484.5,525.5 	"/>
	<polygon class="st4" points="-0.5,413.5 285.5,216.5 222.5,624.5 	"/>
	<polygon class="st3" points="-0.5,413.5 424.5,118.5 -0.5,-0.5 	"/>
	<polygon class="st0" points="424.5,118.5 794.5,-0.5 -0.5,-0.5 	"/>
	<polygon class="st2" points="484.5,526 1208.5,397.2 794.5,164 	"/>
	<path class="st5" d="M771.2,563.5"/>
	<polygon class="st0" points="1919.5,7.5 1749.4,275.3 1717.5,325.5 1919.5,513.5 	"/>
	<polygon class="st6" points="1393.5,-0.1 1635.5,157.4 1932.5,8.5 	"/>
	<polygon class="st7" points="1919.5,7.5 1635.5,149.5 1717.5,325.5 	"/>
	<polygon class="st1" points="1717.5,325.5 1375.5,483.5 1919.5,513.5 	"/>
	<polygon class="st4" points="959.5,739.5 921,446 452.5,797.5 	"/>
	<polygon class="st7" points="1919.5,513.5 1796.5,797.5 1919.5,923.5 	"/>
	<polygon class="st2" points="1635.5,149.5 1375.5,483.5 1717.5,325.5 	"/>
	<polygon class="st0" points="1919.5,923.5 1431.5,1079.5 1919.5,1080.5 	"/>
	<polygon class="st3" points="1375.5,483.5 1796.5,797.5 1919.5,513.5 	"/>
	<polygon class="st7" points="1796.5,797.5 1431.5,1079.5 1919.5,923.5 	"/>
	<polygon class="st7" points="1208.5,397.5 959.5,739.5 921.5,446.5 	"/>
	<polygon class="st2" points="1560.9,621.8 1431.5,1079.5 1796.5,797.5 	"/>
	<polygon class="st7" points="1336.5,1080.5 1560.5,621.5 1431.5,1079.5 	"/>
	<polygon class="st7" points="959.5,739.5 1312.5,739.5 1136.5,993.5 	"/>
	<polygon class="st3" points="1208.5,397.5 1312.5,739.5 959.5,739.5 	"/>
	<polygon class="st5" points="1312.5,739.5 1336.5,1080.5 1136.5,993.5 	"/>
	<polygon class="st8" points="1560.5,621.5 1312.5,739.5 1336.5,1080.5 	"/>
	<polygon class="st5" points="1375.5,483.5 1312.5,739.5 1560.5,621.5 	"/>
	<polyline class="st7" points="1312.5,728.9 1208.5,397.5 1375.5,483.5 1312.5,739.5 	"/>
	<polygon class="st5" points="285.5,216.5 794.5,164.5 484.5,526.5 	"/>
	<polygon class="st7" points="424.5,118.5 794.5,164.5 285.5,216.5 	"/>
	<polygon class="st7" points="1635.5,149.5 998.5,0 1428.2,0 	"/>
	<polygon class="st3" points="1375.5,483.5 1236.5,60.2 1635.5,149.5 	"/>
	<polygon class="st1" points="794.5,164.5 757.2,11.5 424.5,118.5 	"/>
	<polygon class="st1" points="1236.5,50 1011.5,284.8 1375.5,490 	"/>
	<polygon class="st7" points="794.5,164.5 1018.6,0 757.5,0 	"/>
	<polygon class="st5" points="1012,286.5 1019,0 794.5,159.4 	"/>
	<polygon class="st3" points="1236.5,51 1018.5,0 1011.5,286.5 	"/>
	<polygon class="st0" points="329.6,1079.5 596.9,942.4 733.5,1079.5 	"/>
	<polygon class="st9" points="-0.5,713.5 242,759.5 133.2,958.9 	"/>
	<rect x="-0.5" y="-0.5" class="st10" width="1934" height="1089"/>
</g>
</svg>
