<?xml version="1.0" encoding="UTF-8" standalone="no"?>
<svg
   xmlns:dc="http://purl.org/dc/elements/1.1/"
   xmlns:cc="http://creativecommons.org/ns#"
   xmlns:rdf="http://www.w3.org/1999/02/22-rdf-syntax-ns#"
   xmlns:svg="http://www.w3.org/2000/svg"
   xmlns="http://www.w3.org/2000/svg"
   viewBox="0 0 325.05334 177.96001"
   height="2500"
   width="2500"
   xml:space="preserve"
   id="svg2"
   version="1.1"><metadata
     id="metadata8"><rdf:RDF><cc:Work
         rdf:about=""><dc:format>image/svg+xml</dc:format><dc:type
           rdf:resource="http://purl.org/dc/dcmitype/StillImage" /></cc:Work></rdf:RDF></metadata><defs
     id="defs6" /><g
     transform="matrix(1.3333333,0,0,-1.3333333,0,177.96)"
     id="g10"><g
       transform="scale(0.1)"
       id="g12"><path
         id="path14"
         style="fill:#ee293d;fill-opacity:1;fill-rule:nonzero;stroke:none"
         d="m 847.859,729.531 c -0.332,-22.461 -8.914,-61.875 6.536,-134.187 0,0 47.105,-348.293 401.715,-355.188 102.03,6.992 145.04,26.446 197.56,52.071 197,96.445 229.79,312.5 229.79,312.5 H 1498.11 C 1390.88,362.695 1182.58,443.867 1182.58,443.867 l 117.15,550.723 c 225.2,-6.172 233.63,-218.305 233.63,-218.305 h 188.44 c 0,0 13.2,222.856 -204.03,355.095 -44.49,27.05 -117.87,46.12 -189.66,47.8 0,0 -401.118,25.15 -480.251,-449.649" /><path
         id="path16"
         style="fill:#ee293d;fill-opacity:1;fill-rule:nonzero;stroke:none"
         d="m 2437.9,1117.87 -36.79,-171.557 h -315.56 l -36.76,-171.547 h 316.35 l -36.02,-171.582 h -316.33 l -35.97,-171.543 h 316.31 L 2256.41,260.84 h -637.23 l 181.46,857.03 h 637.26" /><path
         id="path18"
         style="fill:#ee293d;fill-opacity:1;fill-rule:nonzero;stroke:none"
         d="M 467.211,260.84 364.578,807.695 0,260.84 h 467.211" /><path
         id="path20"
         style="fill:#ee293d;fill-opacity:1;fill-rule:nonzero;stroke:none"
         d="M 913.711,260.84 H 565.258 l -122.543,664.82 272.652,409 198.344,-1073.82" /><path
         id="path22"
         style="fill:#000000;fill-opacity:1;fill-rule:nonzero;stroke:none"
         d="m 2333.95,306.836 c 6.53,0 12.4,0.469 12.4,8.262 0,6.328 -5.76,7.519 -11.1,7.519 h -10.54 v -15.781 h 9.24 m -9.24,-28.613 h -7.7 v 50.957 h 19.4 c 12.01,0 17.97,-4.434 17.97,-14.532 0,-9.101 -5.7,-13.085 -13.17,-14.003 l 14.47,-22.422 h -8.65 l -13.44,22.109 h -8.88 z m 9.36,-11.368 c 19.97,0 35.77,15.665 35.77,36.954 0,20.937 -15.8,36.66 -35.77,36.66 -20.24,0 -35.98,-15.723 -35.98,-36.66 0,-21.289 15.74,-36.954 35.98,-36.954 z m -44.89,36.954 c 0,25.371 20.57,44.062 44.89,44.062 24.11,0 44.64,-18.691 44.64,-44.062 0,-25.586 -20.53,-44.317 -44.64,-44.317 -24.32,0 -44.89,18.731 -44.89,44.317" /><path
         id="path24"
         style="fill:#000000;fill-opacity:1;fill-rule:nonzero;stroke:none"
         d="m 183.191,200.332 v -25.84 H 122.898 V 42.0625 H 87.4023 V 174.492 H 27.1094 v 25.84 H 183.191" /><path
         id="path26"
         style="fill:#000000;fill-opacity:1;fill-rule:nonzero;stroke:none"
         d="m 202.047,200.332 h 33.324 v -66.394 h 0.43 c 9.863,15.554 25.004,22.351 45.156,22.351 19.727,0 50.426,-10.742 50.426,-46.465 V 42.0625 H 298.055 V 100.41 c 0,27.199 -12.512,33.528 -28.504,33.528 -17.305,0 -34.18,-12.063 -34.18,-38.7817 V 42.0625 H 202.047 V 200.332" /><path
         id="path28"
         style="fill:#000000;fill-opacity:1;fill-rule:nonzero;stroke:none"
         d="m 460.02,109.395 c -1.977,19.941 -16.875,27.168 -35.082,27.168 -16.422,0 -32.887,-8.321 -34.864,-27.168 H 460.02 M 390.074,89.6484 c 0,-23.0078 19.09,-31.9726 37.934,-31.9726 9.883,0 24.558,3.457 28.055,14.0039 h 35.539 c -3.301,-27.4024 -41.879,-33.75 -64.469,-33.75 -55.879,0 -71.684,28.9375 -71.684,59.1797 0,30.2536 15.805,59.1796 71.684,59.1796 31.777,0 67.512,-14.043 67.512,-59.8437 V 89.6484 H 390.074" /><path
         id="path30"
         style="fill:#ee293d;fill-opacity:1;fill-rule:nonzero;stroke:none"
         d="m 610.18,200.332 h 33.316 v -66.394 h 0.438 c 9.89,15.554 25.027,22.351 45.156,22.351 19.742,0 50.441,-10.742 50.441,-46.465 V 42.0625 H 706.207 V 100.41 c 0,27.199 -12.512,33.528 -28.504,33.528 -17.305,0 -34.207,-12.063 -34.207,-38.7817 V 42.0625 H 610.18 V 200.332" /><path
         id="path32"
         style="fill:#ee293d;fill-opacity:1;fill-rule:nonzero;stroke:none"
         d="m 868.168,109.395 c -1.977,19.941 -16.879,27.168 -35.082,27.168 -16.43,0 -32.883,-8.321 -34.859,-27.168 h 69.941 M 798.227,89.6484 c 0,-23.0078 19.097,-31.9726 37.929,-31.9726 9.883,0 24.567,3.457 28.063,14.0039 h 35.508 c -3.278,-27.4024 -41.856,-33.75 -64.438,-33.75 -55.914,0 -71.687,28.9375 -71.687,59.1797 0,30.2536 15.773,59.1796 71.687,59.1796 31.777,0 67.504,-14.043 67.504,-59.8437 V 89.6484 H 798.227" /><path
         id="path34"
         style="fill:#ee293d;fill-opacity:1;fill-rule:nonzero;stroke:none"
         d="M 929.727,200.332 V 42.0625 h 33.316 V 200.332 h -33.316" /><path
         id="path36"
         style="fill:#ee293d;fill-opacity:1;fill-rule:nonzero;stroke:none"
         d="m 1065.86,58.9648 c 21.05,0 35.09,17.3243 35.09,38.1446 0,20.8206 -14.04,38.1246 -35.09,38.1246 -21.06,0 -35.08,-17.304 -35.08,-38.1246 0,-20.8203 14.02,-38.1446 35.08,-38.1446 m -68.383,67.3162 c 0,8.953 -0.446,19.696 -0.875,25.848 h 31.998 c 0.42,-5.039 0.89,-10.098 0.89,-15.098 h 0.41 c 9.42,14.199 27.4,19.258 44.96,19.258 40.75,0 60.71,-27.168 60.71,-58.289 0,-49.3281 -37.93,-60.0703 -59.41,-60.0703 -16.41,0 -33.97,4.3672 -44.93,19.2578 h -0.45 V 0 h -33.303 v 126.281" /><path
         id="path38"
         style="fill:#ee293d;fill-opacity:1;fill-rule:nonzero;stroke:none"
         d="m 1174.98,131.086 h -28.47 v 21.043 h 28.47 v 9.426 c 0,29.343 15.59,40.105 47.15,40.105 9.2,0 20.6,-0.449 28.5,-1.328 v -20.586 c -4.18,0.215 -9.89,0.879 -15.14,0.879 -22.15,0 -27.17,-7.246 -27.17,-25.215 v -3.281 h 34.22 v -21.043 h -34.22 V 42.0625 h -33.34 v 89.0235" /><path
         id="path40"
         style="fill:#ee293d;fill-opacity:1;fill-rule:nonzero;stroke:none"
         d="m 1393.71,68.2031 c 0,-9.6875 0.91,-19.1093 0.91,-26.1406 h -32.02 c -0.43,6.1797 -0.86,12.0977 -0.86,18.2305 h -0.47 c -11.15,-15.5664 -26.29,-22.3633 -46.48,-22.3633 -19.71,0 -50.4,10.7422 -50.4,46.5039 v 67.6954 h 33.34 V 93.8281 c 0,-27.1875 12.47,-33.5351 28.48,-33.5351 17.31,0 34.19,12.0508 34.19,38.789 v 53.047 h 33.31 V 68.2031" /><path
         id="path42"
         style="fill:#ee293d;fill-opacity:1;fill-rule:nonzero;stroke:none"
         d="M 1423.29,200.332 V 42.0625 h 33.32 V 200.332 h -33.32" /><path
         id="path44"
         style="fill:#000000;fill-opacity:1;fill-rule:nonzero;stroke:none"
         d="m 1641.58,58.9648 c 21.06,0 35.08,17.3243 35.08,38.1446 0,20.8206 -14.02,38.1246 -35.08,38.1246 -21.03,0 -35.04,-17.304 -35.04,-38.1246 0,-20.8203 14.01,-38.1446 35.04,-38.1446 m -68.38,67.3162 c 0,8.953 -0.46,19.696 -0.88,25.848 h 32.02 c 0.41,-5.039 0.86,-10.098 0.86,-15.098 h 0.46 c 9.43,14.199 27.37,19.258 44.93,19.258 40.74,0 60.7,-27.168 60.7,-58.289 0,-49.3281 -37.91,-60.0703 -59.38,-60.0703 -16.44,0 -34.01,4.3672 -44.95,19.2578 h -0.42 V 0 h -33.34 v 126.281" /><path
         id="path46"
         style="fill:#000000;fill-opacity:1;fill-rule:nonzero;stroke:none"
         d="M 1728.57,200.332 V 42.0625 h 33.32 V 200.332 h -33.32" /><path
         id="path48"
         style="fill:#000000;fill-opacity:1;fill-rule:nonzero;stroke:none"
         d="m 1861.62,92.2656 c -25.21,0 -39.49,-5.2148 -39.49,-18.3789 0,-7.5 6.17,-17.5586 25.21,-17.5586 16.45,0 41.23,9.6485 41.64,35.9375 h -27.36 m 60.7,-29.3437 c 0,-7.2578 0.23,-13.3906 0.88,-20.8594 h -30.66 c -0.68,5.0664 -0.93,10.125 -0.93,15.125 -13.79,-13.7891 -30.89,-19.2578 -52.15,-19.2578 -38.58,0 -51.95,17.9609 -51.95,33.75 0,34.4143 32.88,40.3323 74.99,40.3323 h 26.48 c 0,19.492 -13.78,24.551 -30.44,24.551 -16.24,0 -25.41,-6.817 -26.74,-15.352 h -34.65 c 3.28,28.281 33.77,35.078 62.27,35.078 30.9,0 62.9,-8.789 62.9,-47.351 V 62.9219" /><path
         id="path50"
         style="fill:#000000;fill-opacity:1;fill-rule:nonzero;stroke:none"
         d="m 2041.76,113.535 c -1.12,14.707 -11.58,23.028 -26.53,23.028 -17.52,0 -32.18,-12.5 -32.18,-39.8638 0,-21.289 8.3,-39.0234 31.75,-39.0234 15.56,0 26.07,7.1992 27.84,22.7539 h 34.63 c -0.41,-28.9258 -29.59,-42.5 -62.23,-42.5 -41.9,0 -66.64,21.25 -66.64,59.1797 0,38.5936 26.5,59.1796 65.53,59.1796 43.61,0 60.93,-19.07 62.46,-42.754 h -34.63" /><path
         id="path52"
         style="fill:#000000;fill-opacity:1;fill-rule:nonzero;stroke:none"
         d="m 2199.12,109.395 c -1.97,19.941 -16.87,27.168 -35.08,27.168 -16.42,0 -32.87,-8.321 -34.86,-27.168 h 69.94 m -69.94,-19.7466 c 0,-23.0078 19.1,-31.9726 37.94,-31.9726 9.87,0 24.56,3.457 28.06,14.0039 h 35.5 c -3.28,-27.4024 -41.85,-33.75 -64.43,-33.75 -55.92,0 -71.7,28.9375 -71.7,59.1797 0,30.2536 15.78,59.1796 71.7,59.1796 31.77,0 67.5,-14.043 67.5,-59.8437 v -6.7969 h -104.57" /><path
         id="path54"
         style="fill:#000000;fill-opacity:1;fill-rule:nonzero;stroke:none"
         d="M 2257.83,72.7656 V 42.0625 h 30.71 v 30.7031 h -30.71" /></g></g></svg>